<?xml version="1.0" encoding="UTF-8" standalone="no"?>
<!-- Created with Inkscape (http://www.inkscape.org/) -->

<svg
   width="60mm"
   height="60mm"
   viewBox="0 0 59.999997 60.000001"
   version="1.1"
   id="svg1"
   inkscape:version="1.4.2 (ebf0e940, 2025-05-08)"
   sodipodi:docname="law.svg"
   xml:space="preserve"
   xmlns:inkscape="http://www.inkscape.org/namespaces/inkscape"
   xmlns:sodipodi="http://sodipodi.sourceforge.net/DTD/sodipodi-0.dtd"
   xmlns="http://www.w3.org/2000/svg"
   xmlns:svg="http://www.w3.org/2000/svg"><sodipodi:namedview
     id="namedview1"
     pagecolor="#505050"
     bordercolor="#eeeeee"
     borderopacity="1"
     inkscape:showpageshadow="0"
     inkscape:pageopacity="0"
     inkscape:pagecheckerboard="0"
     inkscape:deskcolor="#505050"
     inkscape:document-units="mm"
     inkscape:zoom="0.80694436"
     inkscape:cx="43.99312"
     inkscape:cy="156.1446"
     inkscape:window-width="1472"
     inkscape:window-height="895"
     inkscape:window-x="0"
     inkscape:window-y="33"
     inkscape:window-maximized="0"
     inkscape:current-layer="layer1"
     showguides="false"
     showgrid="false" /><defs
     id="defs1"><inkscape:path-effect
       effect="copy_rotate"
       starting_point="324.91569,-57.40884"
       origin="224.91569,-57.40884"
       id="path-effect22"
       is_visible="true"
       lpeversion="1.2"
       lpesatellites=""
       method="normal"
       num_copies="6"
       starting_angle="0"
       rotation_angle="60"
       gap="-0.01"
       copies_to_360="true"
       mirror_copies="false"
       split_items="false"
       link_styles="false" /></defs><g
     inkscape:label="Layer 1"
     inkscape:groupmode="layer"
     id="layer1"
     transform="translate(-1184.0446,-44.504771)"><g
       id="g22"
       transform="matrix(0.7686217,0,0,0.82270901,1041.1695,121.73554)"
       style="stroke-width:1.25249;stroke-dasharray:none"
       inkscape:path-effect="#path-effect22"><path
         style="fill:none;fill-opacity:0.821918;stroke:#917c6f;stroke-width:1.25249;stroke-dasharray:none;stroke-dashoffset:0;stroke-opacity:1"
         id="use2-7-7-5-0-0-6-9-9-6-6-52-9"
         inkscape:label="path2"
         transform="matrix(-0.76604444,0.64278762,0.64278762,0.76604444,0,0)"
         sodipodi:type="arc"
         sodipodi:cx="-223.90829"
         sodipodi:cy="112.93945"
         sodipodi:rx="19.204355"
         sodipodi:ry="19.203737"
         d="m -204.70394,112.93945 c 0,10.60593 -8.59808,19.20374 -19.20435,19.20374 -10.60628,0 -19.20436,-8.59781 -19.20436,-19.20374 0,-10.60593 8.59808,-19.203734 19.20436,-19.203734 10.60627,0 19.20435,8.597804 19.20435,19.203734 z m -12.93693,-2.28088 c -9.18501,5.30297 -20.92997,2.15571 -26.23311,-7.02959 -5.30313,-9.185303 -2.15625,-20.930364 7.02875,-26.233329 9.18501,-5.302966 20.92997,-2.155711 26.2331,7.029591 5.30314,9.185301 2.15626,20.930358 -7.02874,26.233328 z m -4.49317,-12.344156 c -9.185,-5.302966 -12.33188,-17.048027 -7.02874,-26.233328 5.30313,-9.185301 17.04809,-12.332557 26.2331,-7.029591 9.185,5.302966 12.33188,17.048027 7.02874,26.233328 -5.30313,9.185297 -17.04809,12.332557 -26.2331,7.029591 z m 8.44377,-10.063272 c 0,-10.605931 8.59808,-19.203737 19.20436,-19.203737 10.60627,0 19.20435,8.597806 19.20435,19.203737 0,10.605931 -8.59808,19.203738 -19.20435,19.203738 -10.60628,0 -19.20436,-8.597807 -19.20436,-19.203738 z m 12.93694,2.280883 c 9.185,-5.302965 20.92996,-2.15571 26.2331,7.029591 5.30313,9.185304 2.15626,20.930364 -7.02875,26.233324 -9.185,5.30297 -20.92996,2.15571 -26.2331,-7.02959 -5.30314,-9.1853 -2.15626,-20.930359 7.02875,-26.233325 z m 4.49316,12.344155 c 9.18501,5.30297 12.33188,17.04803 7.02875,26.23333 -5.30314,9.1853 -17.0481,12.33256 -26.2331,7.02959 -9.18501,-5.30297 -12.33189,-17.04803 -7.02875,-26.23333 5.30314,-9.1853 17.04809,-12.332555 26.2331,-7.02959 z" /><path
         style="fill:none;fill-opacity:0.821918;stroke:#917c6f;stroke-width:1.25249;stroke-dasharray:none;stroke-dashoffset:0;stroke-opacity:1"
         id="use2-7-7-5-0-0-6-9-9-6-6-52-3-7"
         inkscape:label="path2"
         transform="matrix(-0.76604444,0.64278762,0.64278762,0.76604444,0,0)"
         sodipodi:type="arc"
         sodipodi:cx="-223.90829"
         sodipodi:cy="112.93945"
         sodipodi:rx="14.403265"
         sodipodi:ry="14.402803"
         d="m -209.50503,112.93945 c 0,7.95445 -6.44856,14.40281 -14.40326,14.40281 -7.95471,0 -14.40327,-6.44836 -14.40327,-14.40281 0,-7.95445 6.44856,-14.4028 14.40327,-14.4028 7.9547,0 14.40326,6.44835 14.40326,14.4028 z m -10.53639,-6.43875 c -6.88875,3.97723 -15.69747,1.61679 -19.67483,-5.27219 -3.97735,-6.888974 -1.61719,-15.697769 5.27157,-19.674993 6.88875,-3.977225 15.69747,-1.616784 19.67482,5.272191 3.97735,6.888976 1.6172,15.697772 -5.27156,19.674992 z m 0.30793,-12.344152 c -6.88876,-3.977224 -9.24892,-12.78602 -5.27156,-19.674995 3.97735,-6.888976 12.78607,-9.249416 19.67482,-5.272192 6.88876,3.977225 9.24891,12.78602 5.27156,19.674995 -3.97735,6.888976 -12.78607,9.249416 -19.67482,5.272192 z m 10.84431,-5.905406 c 0,-7.954449 6.44856,-14.402803 14.40327,-14.402803 7.9547,0 14.40326,6.448354 14.40326,14.402803 0,7.954449 -6.44856,14.402808 -14.40326,14.402808 -7.95471,0 -14.40327,-6.448359 -14.40327,-14.402808 z m 10.53639,6.43875 c 6.88876,-3.977225 15.69748,-1.616784 19.67483,5.272191 3.97735,6.888977 1.61719,15.697767 -5.27156,19.674997 -6.88876,3.97722 -15.69748,1.61678 -19.67483,-5.27219 -3.97735,-6.88898 -1.61719,-15.697774 5.27156,-19.674998 z m -0.30792,12.344158 c 6.88875,3.97722 9.24891,12.78602 5.27156,19.67499 -3.97735,6.88898 -12.78607,9.24942 -19.67483,5.27219 -6.88875,-3.97722 -9.24891,-12.78602 -5.27156,-19.67499 3.97735,-6.88898 12.78607,-9.24942 19.67483,-5.27219 z" /></g></g></svg>
