<?xml version="1.0" encoding="UTF-8" standalone="no"?>
<!-- Created with Inkscape (http://www.inkscape.org/) -->

<svg
   width="60.000004mm"
   height="60.000004mm"
   viewBox="0 0 60.000002 60.000005"
   version="1.1"
   id="svg1"
   inkscape:version="1.4.2 (ebf0e940, 2025-05-08)"
   sodipodi:docname="love.svg"
   xml:space="preserve"
   xmlns:inkscape="http://www.inkscape.org/namespaces/inkscape"
   xmlns:sodipodi="http://sodipodi.sourceforge.net/DTD/sodipodi-0.dtd"
   xmlns="http://www.w3.org/2000/svg"
   xmlns:svg="http://www.w3.org/2000/svg"><sodipodi:namedview
     id="namedview1"
     pagecolor="#505050"
     bordercolor="#eeeeee"
     borderopacity="1"
     inkscape:showpageshadow="0"
     inkscape:pageopacity="0"
     inkscape:pagecheckerboard="0"
     inkscape:deskcolor="#505050"
     inkscape:document-units="mm"
     inkscape:zoom="0.47282891"
     inkscape:cx="45.470993"
     inkscape:cy="122.66593"
     inkscape:window-width="1472"
     inkscape:window-height="895"
     inkscape:window-x="0"
     inkscape:window-y="33"
     inkscape:window-maximized="0"
     inkscape:current-layer="layer1"
     showguides="false" /><defs
     id="defs1"><inkscape:path-effect
       effect="copy_rotate"
       starting_point="50.5,-51.135619"
       origin="-49.5,-51.135619"
       id="path-effect15"
       is_visible="true"
       lpeversion="1.2"
       lpesatellites=""
       method="normal"
       num_copies="12"
       starting_angle="0"
       rotation_angle="30"
       gap="-0.01"
       copies_to_360="true"
       mirror_copies="false"
       split_items="false"
       link_styles="false" /></defs><g
     inkscape:label="Layer 1"
     inkscape:groupmode="layer"
     id="layer1"
     transform="translate(-703.68687,-86.118865)"><g
       id="g14"
       inkscape:path-effect="#path-effect15"
       transform="matrix(1.4945465,0,0,1.4945465,807.66692,192.54343)"
       style="stroke-width:0.67029;stroke-dasharray:none"><path
         style="fill:none;fill-opacity:0.821918;stroke:#917c6f;stroke-width:0.67029;stroke-dasharray:none;stroke-dashoffset:0;stroke-opacity:1"
         id="use2-7-7-5-0-0-6-9-9-6-6"
         inkscape:label="path2"
         transform="matrix(-0.76604443,0.64278762,0.64278762,0.76604443,0,0)"
         sodipodi:type="arc"
         sodipodi:cx="-4.8194985"
         sodipodi:cy="-69.235771"
         sodipodi:rx="9.7122726"
         sodipodi:ry="9.7119598"
         d="m 4.8927741,-69.235771 c 0,5.363767 -4.34833257,9.71196 -9.7122726,9.71196 -5.3639405,0 -9.7122725,-4.348193 -9.7122725,-9.71196 0,-5.363767 4.348332,-9.71196 9.7122725,-9.71196 5.36394003,0 9.7122726,4.348193 9.7122726,9.71196 z m -0.8561412,-0.313583 c -2.6818837,4.645159 -8.6217464,6.236638 -13.2670548,3.554668 -4.6453081,-2.68197 -6.2369781,-8.621782 -3.5550951,-13.26694 2.681884,-4.645159 8.6217466,-6.236638 13.26705493,-3.554668 4.64530837,2.68197 6.23697857,8.621782 3.55509497,13.26694 z m -0.5846488,-0.699641 c -4.6451588,2.681884 -10.5849703,1.090214 -13.2669403,-3.555095 -2.6819698,-4.645308 -1.0904908,-10.585171 3.5546676,-13.267054 4.6451588,-2.681884 10.5849702,-1.090214 13.2669403,3.555094 2.68197,4.645309 1.0904911,10.585172 -3.5546676,13.267055 z m -0.1565002,-0.898231 c -5.3637673,0 -9.7119599,-4.348333 -9.7119599,-9.712273 0,-5.36394 4.3481926,-9.712272 9.7119599,-9.712272 5.3637673,0 9.7119601,4.348332 9.7119601,9.712272 0,5.36394 -4.3481928,9.712273 -9.7119601,9.712273 z m 0.3135825,-0.856141 c -4.6451587,-2.681884 -6.2366376,-8.621747 -3.55466759,-13.267055 2.68196999,-4.645309 8.62178149,-6.236979 13.26694019,-3.555095 4.645159,2.681884 6.236638,8.621746 3.554668,13.267055 -2.68197,4.645308 -8.6217818,6.236978 -13.2669406,3.555095 z m 0.6996411,-0.584649 c -2.6818836,-4.645159 -1.0902134,-10.58497 3.5550949,-13.26694 4.6453086,-2.681971 10.5851716,-1.090492 13.2670546,3.554667 2.681884,4.645159 1.090214,10.58497 -3.555095,13.26694 -4.645308,2.68197 -10.5851708,1.090492 -13.2670545,-3.554667 z m 0.8982314,-0.1565 c 0,-5.363768 4.3483325,-9.71196 9.7122731,-9.71196 5.36394,0 9.712272,4.348192 9.712272,9.71196 0,5.363767 -4.348332,9.711959 -9.712272,9.711959 -5.3639406,0 -9.7122731,-4.348192 -9.7122731,-9.711959 z m 0.8561412,0.313582 c 2.6818837,-4.645159 8.6217469,-6.236637 13.2670549,-3.554667 4.645308,2.68197 6.236978,8.621781 3.555095,13.26694 -2.681884,4.645159 -8.621747,6.236637 -13.267055,3.554667 -4.6453083,-2.68197 -6.2369785,-8.621781 -3.5550949,-13.26694 z m 0.5846488,0.699641 c 4.6451591,-2.681883 10.5849701,-1.090213 13.2669401,3.555095 2.68197,4.645309 1.090491,10.585171 -3.554667,13.267055 -4.645159,2.681884 -10.5849707,1.090213 -13.2669407,-3.555095 -2.68197003,-4.645308 -1.0904911,-10.585171 3.5546676,-13.267055 z m 0.1565002,0.898232 c 5.3637669,0 9.7119599,4.348332 9.7119599,9.712272 0,5.36394 -4.348193,9.712273 -9.7119599,9.712273 -5.3637673,0 -9.7119598,-4.348333 -9.7119598,-9.712273 0,-5.36394 4.3481925,-9.712272 9.7119598,-9.712272 z m -0.3135826,0.856141 c 4.6451585,2.681884 6.2366375,8.621746 3.5546675,13.267055 -2.6819699,4.645308 -8.6217814,6.236978 -13.2669401,3.555095 -4.6451588,-2.681884 -6.2366377,-8.621747 -3.5546676,-13.267055 2.68197,-4.645309 8.6217815,-6.236979 13.2669402,-3.555095 z m -0.699641,0.584649 c 2.6818836,4.645158 1.0902134,10.58497 -3.555095,13.26694 -4.6453083,2.68197 -10.5851711,1.090491 -13.2670545,-3.554668 -2.681884,-4.645158 -1.090214,-10.58497 3.5550947,-13.26694 4.6453084,-2.68197 10.5851711,-1.090491 13.2670548,3.554668 z" /><path
         style="fill:none;fill-opacity:0.821918;stroke:#917c6f;stroke-width:0.67029;stroke-dasharray:none;stroke-dashoffset:0;stroke-opacity:1"
         id="use2-7-7-5-0-0-6-9-9-6-6-5"
         inkscape:label="path2"
         transform="matrix(-0.76604443,0.64278762,0.64278762,0.76604443,0,0)"
         sodipodi:type="arc"
         sodipodi:cx="1.6083424"
         sodipodi:cy="-61.575371"
         sodipodi:rx="9.7122726"
         sodipodi:ry="9.7119598"
         d="m 11.320615,-61.575371 c 0,5.363768 -4.3483325,9.71196 -9.7122726,9.71196 -5.3639401,0 -9.7122726,-4.348192 -9.7122726,-9.71196 0,-5.363767 4.3483325,-9.71196 9.7122726,-9.71196 5.3639401,0 9.7122726,4.348193 9.7122726,9.71196 z m -5.5475088,1.874039 c -2.6818836,4.645159 -8.6217464,6.236638 -13.2670547,3.554668 -4.6453085,-2.68197 -6.2369785,-8.621782 -3.5550945,-13.266941 2.6818832,-4.645158 8.6217459,-6.236637 13.2670543,-3.554667 4.6453084,2.68197 6.2369786,8.621781 3.5550949,13.26694 z m -5.74130302,-1.150789 c -4.64515878,2.681884 -10.58497018,1.090213 -13.26694018,-3.555095 -2.68197,-4.645308 -1.090491,-10.585171 3.5546675,-13.267055 4.6451588,-2.681883 10.58497027,-1.090213 13.2669403,3.555095 2.68197,4.645309 1.0904911,10.585171 -3.55466762,13.267055 z m -4.39671968,-3.867264 c -5.3637673,0 -9.7119595,-4.348333 -9.7119595,-9.712273 0,-5.36394 4.3481922,-9.712273 9.7119595,-9.712273 5.3637673,0 9.7119598,4.348333 9.7119598,9.712273 0,5.36394 -4.3481925,9.712273 -9.7119598,9.712273 z m -1.8740389,-5.547509 c -4.6451586,-2.681884 -6.2366376,-8.621746 -3.5546676,-13.267055 2.68197,-4.645308 8.6217815,-6.236978 13.2669403,-3.555095 4.6451587,2.681884 6.2366376,8.621747 3.5546676,13.267055 -2.6819701,4.645308 -8.6217815,6.236979 -13.2669403,3.555095 z m 1.1507892,-5.741303 c -2.6818837,-4.645159 -1.0902135,-10.58497 3.5550949,-13.26694 4.6453083,-2.68197 10.5851711,-1.090491 13.2670543,3.554667 2.681884,4.645159 1.090214,10.58497 -3.5550945,13.266941 -4.6453083,2.68197 -10.5851711,1.090491 -13.2670547,-3.554668 z m 3.8672641,-4.39672 c 0,-5.363767 4.3483326,-9.71196 9.7122727,-9.71196 5.3639404,0 9.7122724,4.348193 9.7122724,9.71196 0,5.363768 -4.348332,9.71196 -9.7122724,9.71196 -5.3639401,0 -9.7122727,-4.348192 -9.7122727,-9.71196 z m 5.5475089,-1.874039 c 2.6818836,-4.645158 8.6217462,-6.236637 13.2670552,-3.554667 4.645308,2.68197 6.236978,8.621781 3.555094,13.26694 -2.681883,4.645159 -8.621746,6.236638 -13.2670543,3.554668 -4.6453084,-2.68197 -6.2369786,-8.621782 -3.5550949,-13.266941 z m 5.7413032,1.150789 c 4.645159,-2.681883 10.58497,-1.090213 13.26694,3.555095 2.68197,4.645309 1.090491,10.585172 -3.554668,13.267055 -4.645158,2.681884 -10.5849698,1.090214 -13.2669398,-3.555095 C 3.8312721,-72.50642 5.422751,-78.446283 10.06791,-81.128167 Z m 4.396719,3.867265 c 5.363768,0 9.71196,4.348332 9.71196,9.712272 0,5.36394 -4.348192,9.712273 -9.71196,9.712273 -5.3637668,0 -9.7119594,-4.348333 -9.7119594,-9.712273 0,-5.36394 4.3481926,-9.712272 9.7119594,-9.712272 z m 1.874039,5.547508 c 4.645159,2.681884 6.236638,8.621747 3.554668,13.267055 -2.68197,4.645309 -8.621782,6.236979 -13.2669403,3.555095 -4.6451587,-2.681883 -6.23663764,-8.621746 -3.5546676,-13.267055 2.68197,-4.645308 8.6217819,-6.236978 13.2669399,-3.555095 z m -1.150789,5.741304 c 2.681884,4.645158 1.090214,10.58497 -3.555095,13.26694 -4.6453081,2.68197 -10.5851708,1.090491 -13.2670545,-3.554668 -2.6818836,-4.645159 -1.0902134,-10.58497 3.5550949,-13.26694 4.6453084,-2.68197 10.5851716,-1.090491 13.2670546,3.554668 z" /></g></g></svg>
