<?xml version="1.0" encoding="UTF-8" standalone="no"?>
<!-- Created with Inkscape (http://www.inkscape.org/) -->

<svg
   width="60.000004mm"
   height="60.000004mm"
   viewBox="0 0 60.000002 60.000005"
   version="1.1"
   id="svg1"
   inkscape:version="1.4.2 (ebf0e940, 2025-05-08)"
   sodipodi:docname="monad.svg"
   xml:space="preserve"
   xmlns:inkscape="http://www.inkscape.org/namespaces/inkscape"
   xmlns:sodipodi="http://sodipodi.sourceforge.net/DTD/sodipodi-0.dtd"
   xmlns="http://www.w3.org/2000/svg"
   xmlns:svg="http://www.w3.org/2000/svg"><sodipodi:namedview
     id="namedview1"
     pagecolor="#505050"
     bordercolor="#eeeeee"
     borderopacity="1"
     inkscape:showpageshadow="0"
     inkscape:pageopacity="0"
     inkscape:pagecheckerboard="0"
     inkscape:deskcolor="#505050"
     inkscape:document-units="mm"
     inkscape:zoom="0.38379478"
     inkscape:cx="-40.386166"
     inkscape:cy="67.744537"
     inkscape:window-width="1472"
     inkscape:window-height="895"
     inkscape:window-x="0"
     inkscape:window-y="33"
     inkscape:window-maximized="0"
     inkscape:current-layer="layer1"
     showguides="false"><inkscape:page
       x="0"
       y="0"
       width="60.000004"
       height="60.000004"
       id="page1"
       margin="0"
       bleed="0" /></sodipodi:namedview><defs
     id="defs1"><inkscape:path-effect
       effect="copy_rotate"
       starting_point="-107.45004,-35.438438"
       origin="-207.45004,-35.438438"
       id="path-effect10"
       is_visible="true"
       lpeversion="1.2"
       lpesatellites=""
       method="normal"
       num_copies="8"
       starting_angle="0"
       rotation_angle="45"
       gap="-0.01"
       copies_to_360="true"
       mirror_copies="false"
       split_items="false"
       link_styles="false" /></defs><g
     inkscape:label="Layer 1"
     inkscape:groupmode="layer"
     id="layer1"
     transform="translate(-1023.2102,-84.499991)"><path
       style="fill:none;fill-opacity:0.821918;stroke:#917c6f;stroke-width:1.65853;stroke-dasharray:none;stroke-dashoffset:0;stroke-opacity:1"
       id="use2-7-7-5-0-0-7"
       inkscape:label="path2"
       transform="matrix(0.46183216,-0.3875232,-0.3875232,-0.46183216,1135.2841,17.741683)"
       inkscape:path-effect="#path-effect10"
       sodipodi:type="arc"
       sodipodi:cx="-182.93808"
       sodipodi:cy="-35.438438"
       sodipodi:rx="24.511957"
       sodipodi:ry="24.511168"
       d="m -158.42612,-35.438438 c 0,13.537144 -10.97438,24.511167 -24.51196,24.511167 -13.53758,0 -24.51196,-10.974023 -24.51196,-24.511167 0,-13.537144 10.97438,-24.511168 24.51196,-24.511168 13.53758,0 24.51196,10.974024 24.51196,24.511168 z m -14.35878,-34.665145 c 9.57221,9.572207 9.57196,25.09207 -5.5e-4,34.664584 -9.57252,9.572515 -25.09238,9.572765 -34.66459,5.59e-4 -9.5722,-9.572207 -9.57195,-25.09207 5.6e-4,-34.664584 9.57251,-9.572515 25.09238,-9.572765 34.66458,-5.59e-4 z m -34.66514,-14.358772 c 13.53714,0 24.51117,10.974377 24.51117,24.511957 0,13.53758 -10.97403,24.511957 -24.51117,24.511957 -13.53714,0 -24.51117,-10.974377 -24.51117,-24.511957 0,-13.53758 10.97403,-24.511957 24.51117,-24.511957 z m -34.66514,14.358773 c 9.5722,-9.572206 25.09206,-9.571956 34.66458,5.58e-4 9.57251,9.572515 9.57276,25.092378 5.6e-4,34.664584 -9.57221,9.572207 -25.09207,9.571957 -34.66459,-5.58e-4 -9.57251,-9.572515 -9.57276,-25.092378 -5.5e-4,-34.664584 z m -14.35878,34.665144 c 0,-13.537144 10.97438,-24.511167 24.51196,-24.511167 13.53758,0 24.51196,10.974023 24.51196,24.511167 0,13.537144 -10.97438,24.511168 -24.51196,24.511168 -13.53758,0 -24.51196,-10.974024 -24.51196,-24.511168 z m 14.35878,34.66514468 c -9.57221,-9.57220668 -9.57196,-25.09206968 5.5e-4,-34.66458368 9.57252,-9.572515 25.09238,-9.572765 34.66459,-5.59e-4 9.5722,9.572207 9.57195,25.09207 -5.6e-4,34.66458432 -9.57251,9.57251468 -25.09238,9.57276468 -34.66458,5.5836e-4 z m 34.66514,14.35877232 c -13.53714,0 -24.51117,-10.9743767 -24.51117,-24.511957 0,-13.53758 10.97403,-24.511957 24.51117,-24.511957 13.53714,0 24.51117,10.974377 24.51117,24.511957 0,13.5375803 -10.97403,24.511957 -24.51117,24.511957 z m 34.66514,-14.35877291 c -9.5722,9.57220631 -25.09206,9.57195631 -34.66458,-5.5836e-4 -9.57251,-9.57251473 -9.57276,-25.09237773 -5.6e-4,-34.66458373 9.57221,-9.572207 25.09207,-9.571957 34.66459,5.58e-4 9.57251,9.572515 9.57276,25.092378 5.5e-4,34.66458409 z" /></g></svg>
