<?xml version="1.0" encoding="UTF-8" standalone="no"?>
<!-- Created with Inkscape (http://www.inkscape.org/) -->

<svg
   width="60mm"
   height="60mm"
   viewBox="0 0 59.999998 60.000002"
   version="1.1"
   id="svg1"
   inkscape:version="1.4.2 (ebf0e940, 2025-05-08)"
   sodipodi:docname="sokoon.svg"
   xml:space="preserve"
   xmlns:inkscape="http://www.inkscape.org/namespaces/inkscape"
   xmlns:sodipodi="http://sodipodi.sourceforge.net/DTD/sodipodi-0.dtd"
   xmlns="http://www.w3.org/2000/svg"
   xmlns:svg="http://www.w3.org/2000/svg"><sodipodi:namedview
     id="namedview1"
     pagecolor="#505050"
     bordercolor="#eeeeee"
     borderopacity="1"
     inkscape:showpageshadow="0"
     inkscape:pageopacity="0"
     inkscape:pagecheckerboard="0"
     inkscape:deskcolor="#505050"
     inkscape:document-units="mm"
     inkscape:zoom="1.0284525"
     inkscape:cx="137.58535"
     inkscape:cy="112.79082"
     inkscape:window-width="1472"
     inkscape:window-height="895"
     inkscape:window-x="0"
     inkscape:window-y="32"
     inkscape:window-maximized="0"
     inkscape:current-layer="layer1"
     showguides="false"><inkscape:page
       x="0"
       y="0"
       width="60"
       height="60.000004"
       id="page1"
       margin="0"
       bleed="0" /></sodipodi:namedview><defs
     id="defs1"><inkscape:path-effect
       effect="copy_rotate"
       starting_point="1686.81,-121.33671"
       origin="1586.81,-121.33671"
       id="path-effect9"
       is_visible="true"
       lpeversion="1.2"
       lpesatellites=""
       method="normal"
       num_copies="6"
       starting_angle="0"
       rotation_angle="60"
       gap="-0.01"
       copies_to_360="true"
       mirror_copies="false"
       split_items="false"
       link_styles="false" /></defs><g
     inkscape:label="Layer 1"
     inkscape:groupmode="layer"
     id="layer1"
     transform="translate(-1833.2102,-83.80293)"><g
       id="g9"
       transform="matrix(0.72186239,-0.25677274,0.26273644,0.70547727,749.63132,606.85277)"
       inkscape:path-effect="#path-effect9"
       style="stroke-width:1.31647;stroke-dasharray:none"><path
         style="fill:none;fill-opacity:0.821918;stroke:#917c6f;stroke-width:1.31647;stroke-dasharray:none;stroke-dashoffset:0;stroke-opacity:1"
         id="use2-7-7-5-0-0-7-6-9"
         inkscape:label="path2"
         transform="matrix(-0.76604444,0.64278761,0.64278761,0.76604444,0,0)"
         sodipodi:type="arc"
         sodipodi:cx="-1308.9597"
         sodipodi:cy="939.9538"
         sodipodi:rx="19.505182"
         sodipodi:ry="19.504555"
         d="m -1289.4545,939.9538 c 0,10.77206 -8.7328,19.50455 -19.5052,19.50455 -10.7724,0 -19.5052,-8.73249 -19.5052,-19.50455 0,-10.77207 8.7328,-19.50456 19.5052,-19.50456 10.7724,0 19.5052,8.73249 19.5052,19.50456 z m -13.2433,-2.90459 c -9.3289,5.38603 -21.2578,2.18948 -26.644,-7.13971 -5.3862,-9.32918 -2.1901,-21.25823 7.1388,-26.64426 9.3289,-5.38603 21.2578,-2.18948 26.6441,7.13971 5.3862,9.32918 2.19,21.25822 -7.1389,26.64426 z m -4.1062,-12.9213 c -9.3289,-5.38603 -12.525,-17.31508 -7.1388,-26.64426 5.3862,-9.32919 17.3151,-12.52574 26.644,-7.13971 9.3289,5.38604 12.5251,17.31508 7.1389,26.64426 -5.3863,9.32919 -17.3152,12.52574 -26.6441,7.13971 z m 9.1371,-10.01671 c 0,-10.77207 8.7328,-19.50455 19.5052,-19.50455 10.7724,0 19.5052,8.73248 19.5052,19.50455 0,10.77207 -8.7328,19.50456 -19.5052,19.50456 -10.7724,0 -19.5052,-8.73249 -19.5052,-19.50456 z m 13.2433,2.90459 c 9.3288,-5.38603 21.2578,-2.18948 26.644,7.13971 5.3862,9.32918 2.19,21.25822 -7.1389,26.64426 -9.3288,5.38603 -21.2578,2.18948 -26.644,-7.13971 -5.3862,-9.32918 -2.19,-21.25822 7.1389,-26.64426 z m 4.1061,12.9213 c 9.3289,5.38603 12.5251,17.31508 7.1389,26.64426 -5.3862,9.32918 -17.3152,12.52574 -26.644,7.13971 -9.3289,-5.38604 -12.5251,-17.31508 -7.1389,-26.64426 5.3862,-9.32919 17.3152,-12.52574 26.644,-7.13971 z" /><path
         style="fill:none;fill-opacity:0.821918;stroke:#917c6f;stroke-width:1.31647;stroke-dasharray:none;stroke-dashoffset:0;stroke-opacity:1"
         id="use2-7-7-5-0-0-7-6-9-72-5"
         inkscape:label="path2"
         transform="matrix(-0.76604444,0.64278761,0.64278761,0.76604444,0,0)"
         sodipodi:type="arc"
         sodipodi:cx="-1305.7457"
         sodipodi:cy="943.784"
         sodipodi:rx="9.7525911"
         sodipodi:ry="9.7522774"
         d="m -1295.9931,943.784 c 0,5.38603 -4.3664,9.75227 -9.7526,9.75227 -5.3862,0 -9.7526,-4.36624 -9.7526,-9.75227 0,-5.38604 4.3664,-9.75228 9.7526,-9.75228 5.3862,0 9.7526,4.36624 9.7526,9.75228 z m -13.291,-10.48229 c -4.6645,2.69302 -10.629,1.09474 -13.3221,-3.56985 -2.6931,-4.66459 -1.095,-10.62912 3.5695,-13.32213 4.6644,-2.69302 10.6289,-1.09474 13.322,3.56985 2.6931,4.66459 1.095,10.62911 -3.5694,13.32213 z m 2.4324,-16.7515 c -4.6645,-2.69301 -6.2626,-8.65753 -3.5695,-13.32213 2.6931,-4.66459 8.6576,-6.26287 13.3221,-3.56985 4.6644,2.69302 6.2625,8.65754 3.5694,13.32213 -2.6931,4.66459 -8.6576,6.26287 -13.322,3.56985 z m 15.7234,-6.26921 c 0,-5.38603 4.3664,-9.75228 9.7526,-9.75228 5.3862,0 9.7526,4.36625 9.7526,9.75228 0,5.38604 -4.3664,9.75228 -9.7526,9.75228 -5.3862,0 -9.7526,-4.36624 -9.7526,-9.75228 z m 13.291,10.48229 c 4.6645,-2.69302 10.6289,-1.09474 13.322,3.56985 2.6931,4.66459 1.095,10.62911 -3.5694,13.32213 -4.6644,2.69302 -10.6289,1.09474 -13.322,-3.56985 -2.6931,-4.66459 -1.095,-10.62912 3.5694,-13.32213 z m -2.4324,16.75149 c 4.6644,2.69302 6.2625,8.65754 3.5694,13.32214 -2.6931,4.66459 -8.6576,6.26287 -13.322,3.56985 -4.6644,-2.69302 -6.2625,-8.65754 -3.5694,-13.32213 2.6931,-4.66459 8.6576,-6.26287 13.322,-3.56986 z" /></g></g></svg>
