<?xml version="1.0" encoding="UTF-8" standalone="no"?>
<!-- Created with Inkscape (http://www.inkscape.org/) -->

<svg
   width="60mm"
   height="59.999992mm"
   viewBox="0 0 59.999998 59.999994"
   version="1.1"
   id="svg1"
   inkscape:version="1.4.2 (ebf0e940, 2025-05-08)"
   sodipodi:docname="you.svg"
   xml:space="preserve"
   xmlns:inkscape="http://www.inkscape.org/namespaces/inkscape"
   xmlns:sodipodi="http://sodipodi.sourceforge.net/DTD/sodipodi-0.dtd"
   xmlns="http://www.w3.org/2000/svg"
   xmlns:svg="http://www.w3.org/2000/svg"><sodipodi:namedview
     id="namedview1"
     pagecolor="#505050"
     bordercolor="#eeeeee"
     borderopacity="1"
     inkscape:showpageshadow="0"
     inkscape:pageopacity="0"
     inkscape:pagecheckerboard="0"
     inkscape:deskcolor="#505050"
     inkscape:document-units="mm"
     inkscape:zoom="0.49343687"
     inkscape:cx="7.093106"
     inkscape:cy="22.292619"
     inkscape:window-width="1472"
     inkscape:window-height="895"
     inkscape:window-x="0"
     inkscape:window-y="33"
     inkscape:window-maximized="0"
     inkscape:current-layer="layer1"
     showguides="false"><inkscape:page
       x="0"
       y="2.4824816e-15"
       width="60"
       height="59.999996"
       id="page1"
       margin="0"
       bleed="0" /></sodipodi:namedview><defs
     id="defs1"><inkscape:path-effect
       effect="copy_rotate"
       starting_point="123.4,-54.440048"
       origin="23.4,-54.440048"
       id="path-effect20"
       is_visible="true"
       lpeversion="1.2"
       lpesatellites=""
       method="normal"
       num_copies="12"
       starting_angle="0"
       rotation_angle="30"
       gap="-0.01"
       copies_to_360="true"
       mirror_copies="false"
       split_items="false"
       link_styles="false" /></defs><g
     inkscape:label="Layer 1"
     inkscape:groupmode="layer"
     id="layer1"
     transform="translate(-1347.2103,-84.499997)"><g
       id="g20"
       inkscape:path-effect="#path-effect20"
       transform="matrix(0.62726794,0,0,0.62726794,1362.5322,148.6485)"
       style="stroke-width:1.59264;stroke-dasharray:none"><path
         style="fill:none;fill-opacity:0.821918;stroke:#917c6f;stroke-width:1.59264;stroke-dasharray:none;stroke-dashoffset:0;stroke-opacity:1"
         id="use2-7-7-5-0-0-6-9-9-6-6-52-0"
         inkscape:label="path2"
         transform="matrix(-0.76604444,0.64278762,0.64278762,0.76604444,0,0)"
         sodipodi:type="arc"
         sodipodi:cx="-74.085945"
         sodipodi:cy="-8.9009447"
         sodipodi:rx="19.204355"
         sodipodi:ry="19.203737"
         d="m -54.88159,-8.9009447 c 0,10.6059312 -8.598083,19.2037377 -19.204355,19.2037377 -10.606273,0 -19.204355,-8.5978065 -19.204355,-19.2037377 0,-10.6059313 8.598082,-19.2037373 19.204355,-19.2037373 10.606272,0 19.204355,8.597806 19.204355,19.2037373 z m -8.6177,-3.3609463 c -5.302966,9.1850056 -17.048027,12.33188268 -26.233328,7.0287464 -9.185302,-5.3031364 -12.332552,-17.0480964 -7.029591,-26.2331024 5.302965,-9.185005 17.048027,-12.331882 26.233328,-7.028746 9.185301,5.303136 12.332556,17.048096 7.029591,26.233102 z m -5.782674,-7.219515 c -9.185006,5.302965 -20.929966,2.15571 -26.233102,-7.029591 -5.303134,-9.185302 -2.156259,-20.930363 7.028747,-26.233329 9.185005,-5.302965 20.929965,-2.15571 26.233102,7.029591 5.303136,9.185302 2.156259,20.930363 -7.028747,26.233329 z m -1.398185,-9.143621 c -10.605931,0 -19.203737,-8.598083 -19.203737,-19.204355 0,-10.606273 8.597806,-19.204356 19.203737,-19.204356 10.605931,0 19.203737,8.598083 19.203737,19.204356 0,10.606272 -8.597806,19.204355 -19.203737,19.204355 z m 3.360946,-8.6177 c -9.185005,-5.302966 -12.331883,-17.048027 -7.028746,-26.233328 5.303136,-9.185302 17.048096,-12.332557 26.233102,-7.029591 9.185006,5.302965 12.331883,17.048026 7.028746,26.233328 -5.303136,9.185301 -17.048096,12.332556 -26.233102,7.029591 z m 7.219516,-5.782674 c -5.302966,-9.185006 -2.155711,-20.929966 7.02959,-26.233102 9.185302,-5.303137 20.930363,-2.156259 26.233329,7.028746 5.302965,9.185006 2.15571,20.929966 -7.029591,26.233102 -9.185302,5.303137 -20.930363,2.156259 -26.233328,-7.028746 z m 9.14362,-1.398185 c 0,-10.605932 8.598083,-19.203738 19.204355,-19.203738 10.606273,0 19.204356,8.597806 19.204356,19.203738 0,10.605931 -8.598083,19.203737 -19.204356,19.203737 -10.606272,0 -19.204355,-8.597806 -19.204355,-19.203737 z m 8.6177,3.360946 c 5.302966,-9.185006 17.048027,-12.331883 26.233329,-7.028747 9.185301,5.303137 12.3325561,17.048097 7.0295905,26.233102 -5.3029655,9.185006 -17.0480265,12.3318834 -26.2333285,7.028747 -9.185301,-5.303136 -12.332556,-17.048096 -7.029591,-26.233102 z m 5.782674,7.219515 c 9.185006,-5.302965 20.929966,-2.15571 26.233102,7.029591 5.3031367,9.185302 2.1562596,20.9303628 -7.028746,26.2333284 -9.185006,5.3029656 -20.929966,2.1557106 -26.233102,-7.0295909 -5.303136,-9.1853015 -2.156259,-20.9303625 7.028746,-26.2333285 z m 1.398186,9.143621 c 10.605931,0 19.203737,8.598083 19.203737,19.2043552 0,10.6062726 -8.597806,19.2043548 -19.203737,19.2043548 -10.605932,0 -19.203738,-8.5980822 -19.203738,-19.2043548 0,-10.6062722 8.597806,-19.2043552 19.203738,-19.2043552 z m -3.360947,8.6177 c 9.185006,5.302966 12.331883,17.04802692 7.028747,26.233328 -5.303137,9.185302 -17.048096,12.332557 -26.233102,7.029591 -9.185006,-5.302965 -12.331883,-17.04802644 -7.028747,-26.2333279 5.303136,-9.1853011 17.048096,-12.3325561 26.233102,-7.0295911 z m -7.219515,5.782674 c 5.302965,9.1850062 2.15571,20.929966 -7.029591,26.233102 -9.185302,5.303136 -20.930363,2.156259 -26.233328,-7.0287465 -5.302966,-9.18500585 -2.155711,-20.9299655 7.029591,-26.2331015 9.185301,-5.303137 20.930362,-2.15626 26.233328,7.028746 z" /><path
         style="fill:none;fill-opacity:0.821918;stroke:#917c6f;stroke-width:1.59264;stroke-dasharray:none;stroke-dashoffset:0;stroke-opacity:1"
         id="use2-7-7-5-0-0-6-9-9-6-6-52-3-7-0"
         inkscape:label="path2"
         transform="matrix(-0.76604444,0.64278762,0.64278762,0.76604444,0,0)"
         sodipodi:type="arc"
         sodipodi:cx="-77.916061"
         sodipodi:cy="-5.6870928"
         sodipodi:rx="14.403264"
         sodipodi:ry="14.402802"
         d="m -63.512797,-5.6870928 c 0,7.9544482 -6.448561,14.4028025 -14.403264,14.4028025 -7.954703,0 -14.403264,-6.4483543 -14.403264,-14.4028025 0,-7.9544482 6.448561,-14.4028022 14.403264,-14.4028022 7.954703,0 14.403264,6.448354 14.403264,14.4028022 z m -9.068264,-8.1071252 c -3.977224,6.8887546 -12.786019,9.2489127 -19.674994,5.2715612 -6.888975,-3.9773512 -9.249415,-12.7860702 -5.272191,-19.6748252 3.977224,-6.888754 12.786019,-9.248912 19.674994,-5.27156 6.888975,3.977351 9.249415,12.78607 5.272191,19.674824 z m -3.799784,-11.555107 c -6.888754,3.977224 -15.697474,1.616783 -19.674825,-5.272192 -3.97735,-6.888975 -1.617194,-15.69777 5.271561,-19.674994 6.888754,-3.977224 15.697473,-1.616783 19.674824,5.272192 3.977352,6.888975 1.617194,15.697769 -5.27156,19.674994 z m 2.486844,-11.90691 c -7.954448,0 -14.402803,-6.448561 -14.402803,-14.403264 0,-7.954703 6.448355,-14.403264 14.402803,-14.403264 7.954448,0 14.402802,6.448561 14.402802,14.403264 0,7.954703 -6.448354,14.403264 -14.402802,14.403264 z m 8.107125,-9.068263 c -6.888754,-3.977224 -9.248913,-12.786019 -5.271561,-19.674994 3.977351,-6.888975 12.786071,-9.249415 19.674825,-5.272191 6.888754,3.977224 9.248912,12.786018 5.271561,19.674993 -3.977352,6.888975 -12.786071,9.249416 -19.674825,5.272192 z m 11.555108,-3.799785 c -3.977224,-6.888754 -1.616784,-15.697473 5.272191,-19.674824 6.888975,-3.977352 15.69777,-1.617194 19.674994,5.27156 3.977224,6.888755 1.616783,15.697474 -5.272192,19.674825 -6.888975,3.977352 -15.697769,1.617194 -19.674993,-5.271561 z m 11.906909,2.486845 c 0,-7.954448 6.448561,-14.402803 14.403264,-14.402803 7.954703,0 14.403264,6.448355 14.403264,14.402803 0,7.954448 -6.448561,14.402802 -14.403264,14.402802 -7.954703,0 -14.403264,-6.448354 -14.403264,-14.402802 z m 9.068263,8.107124 c 3.977224,-6.888754 12.786019,-9.248912 19.674994,-5.27156 6.8889751,3.977351 9.2494155,12.78607 5.2721915,19.674825 -3.9772245,6.888754 -12.7860185,9.248912 -19.6749935,5.27156 -6.888975,-3.977351 -9.249416,-12.78607 -5.272192,-19.674825 z m 3.799785,11.555108 c 6.888754,-3.977224 15.697473,-1.616783 19.6748245,5.272192 3.9773515,6.888975 1.6171934,15.6977694 -5.2715605,19.6749935 -6.888754,3.97722407 -15.697474,1.6167836 -19.674825,-5.2721913 -3.977352,-6.8889752 -1.617194,-15.6977702 5.271561,-19.6749942 z m -2.486845,11.906909 c 7.954449,0 14.402803,6.4485614 14.402803,14.4032645 0,7.9547031 -6.448354,14.4032645 -14.402803,14.4032645 -7.954448,0 -14.402802,-6.4485614 -14.402802,-14.4032645 0,-7.9547031 6.448354,-14.4032645 14.402802,-14.4032645 z m -8.107124,9.0682641 c 6.888754,3.9772241 9.248912,12.7860189 5.27156,19.6749939 -3.977351,6.888975 -12.78607,9.249415 -19.674824,5.272191 -6.888755,-3.977224 -9.248913,-12.7860186 -5.271561,-19.6749935 3.977351,-6.888975 12.78607,-9.2494155 19.674825,-5.2721914 z m -11.555108,3.7997843 c 3.977224,6.8887542 1.616783,15.6974736 -5.272192,19.6748246 -6.888975,3.977352 -15.697769,1.617194 -19.674993,-5.271561 -3.977224,-6.8887537 -1.616784,-15.6974728 5.272191,-19.6748244 6.888975,-3.9773516 15.69777,-1.6171936 19.674994,5.2715608 z" /></g></g></svg>
