<?xml version="1.0" encoding="UTF-8" standalone="no"?>
<!-- Created with Inkscape (http://www.inkscape.org/) -->

<svg
   width="42.333332mm"
   height="3.7041667mm"
   viewBox="0 0 42.333333 3.7041668"
   version="1.1"
   id="svg1"
   inkscape:version="1.4.2 (ebf0e940, 2025-05-08)"
   sodipodi:docname="typo-artan.svg"
   xmlns:inkscape="http://www.inkscape.org/namespaces/inkscape"
   xmlns:sodipodi="http://sodipodi.sourceforge.net/DTD/sodipodi-0.dtd"
   xmlns="http://www.w3.org/2000/svg"
   xmlns:svg="http://www.w3.org/2000/svg">
  <sodipodi:namedview
     id="namedview1"
     pagecolor="#505050"
     bordercolor="#eeeeee"
     borderopacity="1"
     inkscape:showpageshadow="0"
     inkscape:pageopacity="0"
     inkscape:pagecheckerboard="0"
     inkscape:deskcolor="#505050"
     inkscape:document-units="mm"
     inkscape:zoom="3.4589995"
     inkscape:cx="84.128373"
     inkscape:cy="41.052333"
     inkscape:window-width="1472"
     inkscape:window-height="895"
     inkscape:window-x="0"
     inkscape:window-y="61"
     inkscape:window-maximized="0"
     inkscape:current-layer="layer1" />
  <defs
     id="defs1" />
  <g
     inkscape:label="Layer 1"
     inkscape:groupmode="layer"
     id="layer1"
     transform="translate(-82.590976,-141.0085)">
    <g
       id="g1"
       transform="translate(-9.6911621e-7,-5.6464767)">
      <path
         d="m 95.144091,146.65779 h -1.897941 -0.1771 c -0.528229,0 -0.953064,0.2896 -0.953064,0.6503 v 1.40648 c 0,0 0,0 0,0 v 1.36198 c 0,0.15761 0.183241,0.28261 0.413574,0.28261 h 0.775965 c 0.119773,0 0.21293,-0.063 0.21293,-0.14521 v -1.50208 c 0,-0.0731 0.154579,-0.1946 0.19348,-0.132 0.102369,0.1613 0.244664,1.77929 1.716745,1.77929 h 0.76368 c 0.09213,0 0.161746,-0.054 0.144342,-0.11771 l -0.08189,-0.3239 c -0.327585,-1.25789 -2.976922,-1.33388 -0.838411,-1.33388 1.086146,-0.058 0.924401,0.086 0.924401,-0.43069 v -0.6804 c 0,-0.77699 -1.010392,-0.81759 -1.190563,-0.81759 z m -1.363568,0.14849 h 0.817936 c 0.125915,0 0.254901,0.035 0.344987,0.096 0.09213,0.061 0.147413,0.15031 0.147413,0.23821 v 0.96019 c 0,0.088 -0.05118,0.1776 -0.145365,0.2401 -0.09213,0.062 -0.220096,0.097 -0.347035,0.097 h -0.817936 c -0.144342,0 -0.266163,-0.0829 -0.266163,-0.18139 v -1.2682 c 0,-0.099 0.121821,-0.1815 0.266163,-0.1815 z"
         style="font-size:121.133px;font-family:Brooch;-inkscape-font-specification:Brooch;letter-spacing:12.8715px;word-spacing:3.2179px;baseline-shift:baseline;display:inline;overflow:visible;mix-blend-mode:normal;vector-effect:none;fill:#917c6f;stroke-width:0.0361069;enable-background:accumulate;stop-color:#000000"
         id="path1-4-7-1-1-4-4-5-4-5-4-2-4-0-6-1-8-3" />
      <path
         d="m 101.73309,146.65496 c -0.0511,0 -0.0921,0.048 -0.0921,0.1106 v 0.41221 c 0,0.054 0.0307,0.092 0.0818,0.09 l 1.34667,-0.037 c 0.1228,0 0.2282,0.1117 0.2282,0.25741 v 2.53487 c 0,0.18719 0.12587,0.33611 0.28346,0.33611 h 0.35202 c 0.15759,0 0.28345,-0.14892 0.28345,-0.33611 v -2.53487 c 0,-0.14571 0.10541,-0.26081 0.2282,-0.25741 l 1.3477,0.037 c 0.041,0 0.0818,-0.037 0.0818,-0.09 v -0.41221 c 0,-0.063 -0.041,-0.1106 -0.0921,-0.1106 z"
         style="font-size:121.133px;font-family:Brooch;-inkscape-font-specification:Brooch;letter-spacing:12.8715px;word-spacing:3.2179px;baseline-shift:baseline;display:inline;overflow:visible;mix-blend-mode:normal;vector-effect:none;fill:#917c6f;stroke-width:0.0361069;enable-background:accumulate;stop-color:#000000"
         id="path1-3-6-6-1-1-7-4-5-1-0-7-9-1-3-9-7-0" />
      <path
         d="m 120.8645,146.65505 c -0.0924,0 -0.17353,0.058 -0.17353,0.13388 v 3.54987 c 0,0.011 0.0103,0.02 0.0205,0.02 h 0.14067 c 0.0103,0 0.0205,-0.01 0.0205,-0.02 v -3.32393 c 0,-0.0691 0.0821,-0.13368 0.15504,-0.14529 0.0821,-0.011 0.18072,0.026 0.21357,0.091 l 1.41593,2.75439 c 0.19919,0.38934 0.68486,0.64419 1.22598,0.64419 h 0.86762 c 0.1027,0 0.17353,-0.059 0.17353,-0.13398 v -3.54967 c 0,-0.011 -0.0103,-0.02 -0.0205,-0.02 h -0.13657 c -0.0103,-1e-4 -0.0205,0.01 -0.0205,0.02 v 3.32383 c 0,0.0691 -0.0822,0.13369 -0.15505,0.14529 -0.0822,0.0121 -0.18072,-0.026 -0.21358,-0.09 l -1.41901,-2.75459 c -0.20021,-0.38934 -0.68588,-0.64409 -1.22699,-0.64409 z"
         style="font-size:121.133px;font-family:Brooch;-inkscape-font-specification:Brooch;letter-spacing:12.8715px;word-spacing:3.2179px;baseline-shift:baseline;display:inline;overflow:visible;mix-blend-mode:normal;vector-effect:none;fill:#917c6f;stroke-width:0.0361069;enable-background:accumulate;stop-color:#000000"
         id="path1-1-9-3-5-8-2-9-0-9-7-9-6-4-6-9-3" />
      <path
         id="path30-5-7-1-7-3-4-34-7-9-1-9-4-0-3-9-0-9-2-3-5-8"
         style="font-size:121.133px;font-family:Brooch;-inkscape-font-specification:Brooch;letter-spacing:12.8715px;word-spacing:3.2179px;baseline-shift:baseline;display:inline;overflow:visible;mix-blend-mode:normal;vector-effect:none;fill:#917c6f;stroke-width:0.0361069;enable-background:accumulate;stop-color:#000000"
         d="m 85.137124,146.65523 h -1.145971 c -0.07176,0 -0.128128,0.033 -0.145554,0.081 l -0.082,0.22816 -1.172623,3.37531 c 0,0.0101 0,0.0189 0.0205,0.0189 h 0.157862 c 0.0205,0 0.03075,-0.0101 0.03075,-0.0189 l 0.09225,-0.26378 c 0.03075,-0.0741 0.120953,-0.12668 0.22858,-0.12668 h 2.05619 c 0.07175,-0.0101 0.156828,0.011 0.207054,0.055 0.0205,0.0149 0.03075,0.0341 0.041,0.053 0.0615,0.17763 0.281881,0.30192 0.541212,0.30192 h 0.837442 c 0.0205,0 0.0205,-0.0101 0.0205,-0.0189 l -1.134697,-3.37621 v 0 c -0.0615,-0.18203 -0.29213,-0.30902 -0.557612,-0.30902 z m -0.950193,0.14581 c 0.08201,0 0.160929,0.0421 0.181429,0.10156 l 0.909192,2.71025 c 0.03075,0.093 -0.07175,0.18824 -0.211154,0.18824 h -1.79686 c -0.135303,0 -0.241905,-0.0961 -0.210129,-0.18933 l 0.945067,-2.71015 c 0.0205,-0.0591 0.09225,-0.10087 0.182455,-0.10057 z"
         inkscape:export-filename="../../Site/artan-website/assets/images/logo.svg"
         inkscape:export-xdpi="96"
         inkscape:export-ydpi="96"
         sodipodi:nodetypes="cssccssssscscsscccsccscsscsc" />
      <path
         id="path30-5-7-1-7-3-4-34-7-9-1-9-4-0-3-9-0-9-2-3-5-8-4"
         style="font-size:121.133px;font-family:Brooch;-inkscape-font-specification:Brooch;letter-spacing:12.8715px;word-spacing:3.2179px;baseline-shift:baseline;display:inline;overflow:visible;mix-blend-mode:normal;vector-effect:none;fill:#917c6f;stroke-width:0.0361069;enable-background:accumulate;stop-color:#000000"
         d="m 113.71211,146.65523 h -1.14597 c -0.0718,0 -0.12813,0.033 -0.14556,0.081 l -0.082,0.22816 -1.17262,3.37531 c 0,0.0101 0,0.0189 0.0205,0.0189 h 0.15786 c 0.0205,0 0.0308,-0.0101 0.0308,-0.0189 l 0.0922,-0.26378 c 0.0307,-0.0741 0.12096,-0.12668 0.22858,-0.12668 h 2.05619 c 0.0718,-0.0101 0.15683,0.011 0.20706,0.055 0.0205,0.0149 0.0307,0.0341 0.041,0.053 0.0615,0.17763 0.28188,0.30192 0.54121,0.30192 h 0.83744 c 0.0205,0 0.0205,-0.0101 0.0205,-0.0189 l -1.1347,-3.37621 v 0 c -0.0615,-0.18203 -0.29213,-0.30902 -0.55761,-0.30902 z m -0.95019,0.14581 c 0.082,0 0.16092,0.0421 0.18142,0.10156 l 0.9092,2.71025 c 0.0307,0.093 -0.0718,0.18824 -0.21116,0.18824 h -1.79686 c -0.1353,0 -0.2419,-0.0961 -0.21013,-0.18933 l 0.94507,-2.71015 c 0.0205,-0.0591 0.0923,-0.10087 0.18246,-0.10057 z"
         inkscape:export-filename="../../Site/artan-website/assets/images/logo.svg"
         inkscape:export-xdpi="96"
         inkscape:export-ydpi="96"
         sodipodi:nodetypes="cssccssssscscsscccsccscsscsc" />
    </g>
  </g>
</svg>
